<svg xmlns="http://www.w3.org/2000/svg" viewBox="0 0 128 128" role="img" aria-label="Chic">
  <title>Chic</title>
  <circle cx="64" cy="64" r="52" fill="#f4c430"/>
  <circle cx="48" cy="56" r="6" fill="#1b1b1b"/>
  <circle cx="80" cy="56" r="6" fill="#1b1b1b"/>
  <path d="M64 68c-8 0-14 6-14 14h28c0-8-6-14-14-14z" fill="#f08c00"/>
  <path d="M38 36c6-10 16-16 26-18-8 6-10 12-10 18 0 6-4 10-8 10s-8-4-8-10z" fill="#f4c430"/>
  <path d="M90 36c-6-10-16-16-26-18 8 6 10 12 10 18 0 6 4 10 8 10s8-4 8-10z" fill="#f4c430"/>
</svg>

